<?xml version="1.0" encoding="UTF-8" standalone="no"?>
<!-- Created with Inkscape (http://www.inkscape.org/) -->

<svg
   xmlns:dc="http://purl.org/dc/elements/1.1/"
   xmlns:cc="http://creativecommons.org/ns#"
   xmlns:rdf="http://www.w3.org/1999/02/22-rdf-syntax-ns#"
   xmlns:svg="http://www.w3.org/2000/svg"
   xmlns="http://www.w3.org/2000/svg"
   xmlns:sodipodi="http://sodipodi.sourceforge.net/DTD/sodipodi-0.dtd"
   xmlns:inkscape="http://www.inkscape.org/namespaces/inkscape"
   id="svg2"
   version="1.1"
   inkscape:version="0.48.2 r9819"
   width="368"
   height="400"
   sodipodi:docname="400_F_5459381_DtW1mH97gBLAMQpvbzujjxabKkemcmJf.jpg">
  <metadata
     id="metadata8">
    <rdf:RDF>
      <cc:Work
         rdf:about="">
        <dc:format>image/svg+xml</dc:format>
        <dc:type
           rdf:resource="http://purl.org/dc/dcmitype/StillImage" />
        <dc:title></dc:title>
      </cc:Work>
    </rdf:RDF>
  </metadata>
  <defs
     id="defs6" />
  <sodipodi:namedview
     pagecolor="#ffffff"
     bordercolor="#666666"
     borderopacity="1"
     objecttolerance="10"
     gridtolerance="10"
     guidetolerance="10"
     inkscape:pageopacity="0"
     inkscape:pageshadow="2"
     inkscape:window-width="1366"
     inkscape:window-height="713"
     id="namedview4"
     showgrid="false"
     inkscape:zoom="1.668772"
     inkscape:cx="193.22097"
     inkscape:cy="213.49836"
     inkscape:window-x="0"
     inkscape:window-y="26"
     inkscape:window-maximized="1"
     inkscape:current-layer="g3759" />
  <g
     id="g3759"
     transform="translate(9.5878883,3.5954582)">
    <path
       style="fill:#8e8e8f"
       d="m 145.74685,361.27349 c -15.54709,-2.63253 -30.04048,-7.78991 -39.45786,-14.04081 -7.013121,-4.65505 -15.113921,-13.50859 -16.722101,-18.27597 -0.96324,-2.85546 -1.32348,-29.00436 -1.56652,-113.70822 -0.17359,-60.5 -0.0419,-113.22407 0.29275,-117.164602 0.3346,-3.940535 1.20492,-7.980446 1.93404,-8.977579 1.23569,-1.689907 1.66307,-1.497376 6.29619,2.836358 25.102271,23.480243 102.428321,27.321803 137.205601,6.816384 2.91834,-1.720717 6.81624,-4.280432 8.66199,-5.688254 4.91765,-3.750873 4.09179,-1.461555 -1.39409,3.864485 -9.2878,9.017178 -37.57442,16.811498 -57.0709,19.111708 -19.49649,2.30022 -74.75989,-4.23402 -90.6791,-18.430973 L 92.99244,217.75072 c -0.128574,60.71396 -0.287117,112.22176 0.143901,112.69404 35.409749,38.79958 82.741789,27.53702 89.977029,28.41088 12.11399,1.46312 14.1546,-0.0238 20.8561,-1.53165 4.00256,-0.90059 9.76314,-2.65692 12.80129,-3.90295 14.89817,-6.11012 29.92879,-20.4738 33.55789,-32.06884 l 1.28441,-4.1037 0.0669,6.83189 0.0669,6.83189 -7.87938,7.83713 c -12.59943,12.53189 -28.94625,19.47371 -53.08261,22.542 -13.71931,1.74405 -34.6816,1.73571 -45.03801,-0.0179 z m -15,-256.47914 c -16.17804,-3.45149 -28.16236,-9.955632 -29.49112,-16.005438 -1.385721,-6.309106 5.50998,-15.497621 15.40395,-20.525767 9.0987,-4.623985 22.50211,-7.964854 36.48878,-9.095014 9.94703,-0.803746 9.66463,-1.26047 4.06875,6.580369 -5.47785,7.67546 -6.74209,10.896871 -6.19195,15.777724 0.80394,7.132533 2.57297,8.109589 12.92476,7.138503 4.78674,-0.449037 10.18674,-1.582928 12,-2.519759 4.44224,-2.295111 24.00509,-17.667415 30.53523,-23.994297 4.15784,-4.028423 5.2616,-5.759078 5.2616,-8.250001 0,-1.733696 0.50938,-3.152174 1.13197,-3.152174 1.54594,0 7.86803,3.974756 7.86803,4.946702 0,1.88681 -4.45233,6.170045 -8.30486,7.989457 -5.41037,2.555122 -18.46912,11.830907 -26.44514,18.784297 -4.37228,3.8117 -6.25,6.159917 -6.25,7.816066 0,5.071632 -11.58299,10.524652 -27.29715,12.850922 -5.01332,0.74215 -9.28486,1.85858 -9.49232,2.48096 -0.48795,1.46386 -1.95754,1.36486 -12.21053,-0.82255 z m -7.5,-17.262352 c 3.4511,-4.709945 11.38114,-9.168012 19.25,-10.821865 3.3695,-0.708191 5.25,-1.615319 5.25,-2.532531 0,-0.786006 -0.3375,-1.42139 -0.75,-1.411964 -2.60597,0.05955 -15.96729,4.150302 -19.50474,5.971648 -7.60838,3.917362 -12.50646,9.916679 -10.07859,12.344547 1.37082,1.370823 2.91748,0.429613 5.83333,-3.549835 z m 115.5,-1.58772 c 0,-5.70546 -3.76295,-12.387718 -9.39483,-16.683361 -3.04868,-2.32534 -3.60517,-3.348916 -3.60517,-6.631109 0,-4.854676 1.50245,-5.008184 8.68717,-0.887585 10.56753,6.06072 13.68307,14.395315 8.90544,23.823521 -1.44447,2.850514 -3.06872,5.182753 -3.60946,5.182753 -0.54073,0 -0.98315,-2.161899 -0.98315,-4.804219 z m -76.75,-7.661187 c -1.7875,-0.790925 -3.25,-1.647036 -3.25,-1.902467 0,-0.255432 1.79858,-2.393223 3.99684,-4.750648 2.19827,-2.357424 4.25359,-5.095158 4.56739,-6.083853 0.37476,-1.180759 1.55664,-1.797626 3.44414,-1.797626 3.93051,0 4.50244,1.453039 1.50116,3.813845 -3.39605,2.671333 -3.175,3.186155 1.36803,3.186155 4.38568,0 7.23191,2.290533 5.27628,4.246156 -0.63876,0.638766 -3.07219,1.701882 -5.40761,2.362481 -2.33543,0.660598 -5.14623,1.462744 -6.24623,1.782545 -1.1,0.319802 -3.4625,-0.06566 -5.25,-0.856588 z m 16.75,-19.347473 c 0,-2.07468 3.84353,-5.880235 9.11803,-9.027933 5.47185,-3.26547 11.88197,-2.742566 11.88197,0.969269 0,2.087262 -1.83623,3.010674 -9.5,4.777405 -2.75,0.633958 -5.74713,2.039492 -6.66029,3.123409 -2.08045,2.469485 -4.83971,2.55948 -4.83971,0.15785 z"
       id="path3767"
       inkscape:connector-curvature="0"
       sodipodi:nodetypes="cssscssssszcsssssscccssccsssssssssssssssssssssssssssssssssssssssssssssssss" />
    <path
       transform="translate(-9.5878883,-3.5954582)"
       style="opacity:0.50159834;fill:#ff3131;fill-opacity:1;stroke:none"
       d="m 101.27207,90.790597 c 0,33.290573 135.00897,40.928133 157.60092,1.797729 l 3.59546,12.584104 0,228.91084 c -25.52054,44.20288 -138.27153,44.8966 -164.192594,0 l 0,-231.30782 z"
       id="rect3777"
       inkscape:connector-curvature="0"
       sodipodi:nodetypes="ccccccc" />
    <path
       sodipodi:type="arc"
       style="opacity:0.50159792000000003;fill:#31aaff;fill-opacity:1;stroke:none"
       id="path3780"
       sodipodi:cx="182.16988"
       sodipodi:cy="87.79438"
       sodipodi:rx="72.508408"
       sodipodi:ry="25.168207"
       d="m 254.67828,87.79438 a 72.508408,25.168207 0 1 1 -145.01681,0 72.508408,25.168207 0 1 1 145.01681,0 z"
       transform="matrix(1.0867768,0,0,1.1904762,-27.493368,-19.119712)" />
  </g>
</svg>
