<?xml version="1.0" encoding="UTF-8" standalone="no"?>
<!-- Created with Inkscape (http://www.inkscape.org/) -->

<svg
   xmlns:dc="http://purl.org/dc/elements/1.1/"
   xmlns:cc="http://creativecommons.org/ns#"
   xmlns:rdf="http://www.w3.org/1999/02/22-rdf-syntax-ns#"
   xmlns:svg="http://www.w3.org/2000/svg"
   xmlns="http://www.w3.org/2000/svg"
   xmlns:xlink="http://www.w3.org/1999/xlink"
   xmlns:sodipodi="http://sodipodi.sourceforge.net/DTD/sodipodi-0.dtd"
   xmlns:inkscape="http://www.inkscape.org/namespaces/inkscape"
   width="72"
   height="72"
   id="svg4243"
   version="1.1"
   inkscape:version="0.48.2 r9819"
   sodipodi:docname="dessin.svg">
  <defs
     id="defs4245">
    <radialGradient
       inkscape:collect="always"
       xlink:href="#linearGradient3810"
       id="radialGradient4069"
       gradientUnits="userSpaceOnUse"
       gradientTransform="matrix(0.9989475,-0.0458682,0.01860893,0.40527736,-5.3330156,39.461957)"
       cx="291.8031"
       cy="-5.0711598"
       fx="291.8031"
       fy="-5.0711598"
       r="65.578125" />
    <linearGradient
       id="linearGradient3810">
      <stop
         style="stop-color:#6a6a6a;stop-opacity:1;"
         offset="0"
         id="stop3812" />
      <stop
         style="stop-color:#a1a1a1;stop-opacity:1;"
         offset="1"
         id="stop3814" />
    </linearGradient>
    <radialGradient
       inkscape:collect="always"
       xlink:href="#linearGradient3810"
       id="radialGradient4129"
       cx="283.83524"
       cy="52.896263"
       fx="283.83524"
       fy="52.896263"
       r="66.078125"
       gradientTransform="matrix(1.4250813,-0.36800566,0.21134995,0.76067738,-132.47669,109.40101)"
       gradientUnits="userSpaceOnUse" />
    <linearGradient
       id="linearGradient4160">
      <stop
         style="stop-color:#6a6a6a;stop-opacity:1;"
         offset="0"
         id="stop4162" />
      <stop
         style="stop-color:#a1a1a1;stop-opacity:1;"
         offset="1"
         id="stop4164" />
    </linearGradient>
    <linearGradient
       inkscape:collect="always"
       xlink:href="#linearGradient3932"
       id="linearGradient4071"
       gradientUnits="userSpaceOnUse"
       x1="137.23048"
       y1="57.420135"
       x2="134.34529"
       y2="43.275913" />
    <linearGradient
       id="linearGradient3932">
      <stop
         style="stop-color:#ffffff;stop-opacity:1;"
         offset="0"
         id="stop3934" />
      <stop
         style="stop-color:#ffffff;stop-opacity:0"
         offset="1"
         id="stop3936" />
    </linearGradient>
    <radialGradient
       inkscape:collect="always"
       xlink:href="#linearGradient3810"
       id="radialGradient4073"
       gradientUnits="userSpaceOnUse"
       gradientTransform="matrix(1,0,0,0.62354562,0,12.949785)"
       cx="291.10718"
       cy="34.399349"
       fx="291.10718"
       fy="34.399349"
       r="21.805923" />
    <linearGradient
       id="linearGradient4177">
      <stop
         style="stop-color:#6a6a6a;stop-opacity:1;"
         offset="0"
         id="stop4179" />
      <stop
         style="stop-color:#a1a1a1;stop-opacity:1;"
         offset="1"
         id="stop4181" />
    </linearGradient>
    <radialGradient
       inkscape:collect="always"
       xlink:href="#linearGradient3824"
       id="radialGradient4075"
       gradientUnits="userSpaceOnUse"
       gradientTransform="matrix(0.50869396,-0.11653165,0.02444748,0.10672041,147.48358,72.941768)"
       cx="304.77496"
       cy="75.984581"
       fx="304.77496"
       fy="75.984581"
       r="21.805923" />
    <linearGradient
       id="linearGradient3824">
      <stop
         id="stop3826"
         offset="0"
         style="stop-color:#ffffff;stop-opacity:1;" />
      <stop
         id="stop3828"
         offset="1"
         style="stop-color:#ffffff;stop-opacity:0;" />
    </linearGradient>
    <radialGradient
       inkscape:collect="always"
       xlink:href="#linearGradient3824"
       id="radialGradient4077"
       gradientUnits="userSpaceOnUse"
       gradientTransform="matrix(0.34051168,-0.06706628,0.02115735,0.1074211,192.87514,59.551014)"
       cx="274.1965"
       cy="-142.0385"
       fx="274.1965"
       fy="-142.0385"
       r="21.805923" />
    <linearGradient
       id="linearGradient4188">
      <stop
         id="stop4190"
         offset="0"
         style="stop-color:#ffffff;stop-opacity:1;" />
      <stop
         id="stop4192"
         offset="1"
         style="stop-color:#ffffff;stop-opacity:0;" />
    </linearGradient>
    <radialGradient
       inkscape:collect="always"
       xlink:href="#linearGradient3824"
       id="radialGradient4079"
       gradientUnits="userSpaceOnUse"
       gradientTransform="matrix(0.28115351,-0.05717326,0.02181746,0.10728898,210.57289,56.600485)"
       cx="297.69568"
       cy="-41.01284"
       fx="297.69568"
       fy="-41.01284"
       r="21.805923" />
    <linearGradient
       id="linearGradient4195">
      <stop
         id="stop4197"
         offset="0"
         style="stop-color:#ffffff;stop-opacity:1;" />
      <stop
         id="stop4199"
         offset="1"
         style="stop-color:#ffffff;stop-opacity:0;" />
    </linearGradient>
    <radialGradient
       inkscape:collect="always"
       xlink:href="#linearGradient3810"
       id="radialGradient4081"
       gradientUnits="userSpaceOnUse"
       gradientTransform="matrix(1,0,0,0.79452056,0,8.4943109)"
       cx="296.41071"
       cy="42.484669"
       fx="296.41071"
       fy="42.484669"
       r="2.7838984" />
    <linearGradient
       id="linearGradient4202">
      <stop
         style="stop-color:#6a6a6a;stop-opacity:1;"
         offset="0"
         id="stop4204" />
      <stop
         style="stop-color:#a1a1a1;stop-opacity:1;"
         offset="1"
         id="stop4206" />
    </linearGradient>
    <radialGradient
       inkscape:collect="always"
       xlink:href="#linearGradient3824-5"
       id="radialGradient4083"
       gradientUnits="userSpaceOnUse"
       gradientTransform="matrix(0.99751629,0.04621051,-0.02120302,0.46754255,1.5865556,7.9070154)"
       cx="296.41428"
       cy="41.549023"
       fx="296.41428"
       fy="41.549023"
       r="2.7838984" />
    <linearGradient
       id="linearGradient3824-5">
      <stop
         id="stop3826-7"
         offset="0"
         style="stop-color:#ffffff;stop-opacity:1;" />
      <stop
         id="stop3828-2"
         offset="1"
         style="stop-color:#ffffff;stop-opacity:0;" />
    </linearGradient>
    <radialGradient
       inkscape:collect="always"
       xlink:href="#linearGradient3932"
       id="radialGradient4085"
       gradientUnits="userSpaceOnUse"
       gradientTransform="matrix(0.9989475,-0.0458682,0.01860893,0.40527736,-5.3330156,39.461957)"
       cx="280.45996"
       cy="-19.152206"
       fx="280.45996"
       fy="-19.152206"
       r="65.578125" />
    <linearGradient
       id="linearGradient4213">
      <stop
         style="stop-color:#ffffff;stop-opacity:1;"
         offset="0"
         id="stop4215" />
      <stop
         style="stop-color:#ffffff;stop-opacity:0"
         offset="1"
         id="stop4217" />
    </linearGradient>
    <radialGradient
       inkscape:collect="always"
       xlink:href="#linearGradient4139"
       id="radialGradient4137"
       cx="292.09503"
       cy="165.21375"
       fx="292.09503"
       fy="165.21375"
       r="69.9328"
       gradientTransform="matrix(1,0,0,1.6711133,-0.77966101,-110.87714)"
       gradientUnits="userSpaceOnUse" />
    <linearGradient
       id="linearGradient4139">
      <stop
         id="stop4141"
         offset="0"
         style="stop-color:#2d7fa5;stop-opacity:1;" />
      <stop
         id="stop4143"
         offset="1"
         style="stop-color:#1cb352;stop-opacity:1;" />
    </linearGradient>
    <radialGradient
       r="69.9328"
       fy="165.21375"
       fx="292.09503"
       cy="165.21375"
       cx="292.09503"
       gradientTransform="matrix(1.111138,0.8246675,-1.8053952,2.432548,198.6334,-163.01504)"
       gradientUnits="userSpaceOnUse"
       id="radialGradient4241"
       xlink:href="#linearGradient4139"
       inkscape:collect="always" />
    <radialGradient
       r="69.9328"
       fy="165.21375"
       fx="292.09503"
       cy="165.21375"
       cx="292.09503"
       gradientTransform="matrix(1.111138,0.8246675,-1.8053952,2.432548,198.6334,-163.01504)"
       gradientUnits="userSpaceOnUse"
       id="radialGradient4241-7"
       xlink:href="#linearGradient4139-0"
       inkscape:collect="always" />
    <linearGradient
       id="linearGradient4139-0">
      <stop
         id="stop4141-8"
         offset="0"
         style="stop-color:#146abe;stop-opacity:1;" />
      <stop
         id="stop4143-8"
         offset="1"
         style="stop-color:#14bb31;stop-opacity:1;" />
    </linearGradient>
    <radialGradient
       inkscape:collect="always"
       xlink:href="#linearGradient3810-9"
       id="radialGradient4069-4"
       gradientUnits="userSpaceOnUse"
       gradientTransform="matrix(0.9989475,-0.0458682,0.01860893,0.40527736,-5.3330156,39.461957)"
       cx="291.8031"
       cy="-5.0711598"
       fx="291.8031"
       fy="-5.0711598"
       r="65.578125" />
    <linearGradient
       id="linearGradient3810-9">
      <stop
         style="stop-color:#6a6a6a;stop-opacity:1;"
         offset="0"
         id="stop3812-6" />
      <stop
         style="stop-color:#a1a1a1;stop-opacity:1;"
         offset="1"
         id="stop3814-4" />
    </linearGradient>
    <radialGradient
       inkscape:collect="always"
       xlink:href="#linearGradient3810-9"
       id="radialGradient4129-6"
       cx="283.83524"
       cy="52.896263"
       fx="283.83524"
       fy="52.896263"
       r="66.078125"
       gradientTransform="matrix(1.4250813,-0.36800566,0.21134995,0.76067738,-132.47669,109.40101)"
       gradientUnits="userSpaceOnUse" />
    <linearGradient
       id="linearGradient4940">
      <stop
         style="stop-color:#6a6a6a;stop-opacity:1;"
         offset="0"
         id="stop4942" />
      <stop
         style="stop-color:#a1a1a1;stop-opacity:1;"
         offset="1"
         id="stop4944" />
    </linearGradient>
    <filter
       color-interpolation-filters="sRGB"
       inkscape:collect="always"
       id="filter4041-0">
      <feGaussianBlur
         inkscape:collect="always"
         stdDeviation="0.79171875"
         id="feGaussianBlur4043-3" />
    </filter>
    <linearGradient
       inkscape:collect="always"
       xlink:href="#linearGradient3932-7"
       id="linearGradient4071-2"
       gradientUnits="userSpaceOnUse"
       x1="137.23048"
       y1="57.420135"
       x2="134.34529"
       y2="43.275913" />
    <linearGradient
       id="linearGradient3932-7">
      <stop
         style="stop-color:#ffffff;stop-opacity:1;"
         offset="0"
         id="stop3934-0" />
      <stop
         style="stop-color:#ffffff;stop-opacity:0"
         offset="1"
         id="stop3936-1" />
    </linearGradient>
    <filter
       color-interpolation-filters="sRGB"
       inkscape:collect="always"
       id="filter3942-8">
      <feGaussianBlur
         inkscape:collect="always"
         stdDeviation="0.28586103"
         id="feGaussianBlur3944-4" />
    </filter>
    <filter
       color-interpolation-filters="sRGB"
       inkscape:collect="always"
       id="filter3884-1">
      <feGaussianBlur
         inkscape:collect="always"
         stdDeviation="0.15012957"
         id="feGaussianBlur3886-4" />
    </filter>
    <radialGradient
       inkscape:collect="always"
       xlink:href="#linearGradient3810-9"
       id="radialGradient4073-7"
       gradientUnits="userSpaceOnUse"
       gradientTransform="matrix(1,0,0,0.62354562,0,12.949785)"
       cx="291.10718"
       cy="34.399349"
       fx="291.10718"
       fy="34.399349"
       r="21.805923" />
    <linearGradient
       id="linearGradient4957">
      <stop
         style="stop-color:#6a6a6a;stop-opacity:1;"
         offset="0"
         id="stop4959" />
      <stop
         style="stop-color:#a1a1a1;stop-opacity:1;"
         offset="1"
         id="stop4961" />
    </linearGradient>
    <radialGradient
       inkscape:collect="always"
       xlink:href="#linearGradient3824-8"
       id="radialGradient4075-2"
       gradientUnits="userSpaceOnUse"
       gradientTransform="matrix(0.50869396,-0.11653165,0.02444748,0.10672041,147.48358,72.941768)"
       cx="304.77496"
       cy="75.984581"
       fx="304.77496"
       fy="75.984581"
       r="21.805923" />
    <linearGradient
       id="linearGradient3824-8">
      <stop
         id="stop3826-4"
         offset="0"
         style="stop-color:#ffffff;stop-opacity:1;" />
      <stop
         id="stop3828-7"
         offset="1"
         style="stop-color:#ffffff;stop-opacity:0;" />
    </linearGradient>
    <radialGradient
       inkscape:collect="always"
       xlink:href="#linearGradient3824-8"
       id="radialGradient4077-3"
       gradientUnits="userSpaceOnUse"
       gradientTransform="matrix(0.34051168,-0.06706628,0.02115735,0.1074211,192.87514,59.551014)"
       cx="274.1965"
       cy="-142.0385"
       fx="274.1965"
       fy="-142.0385"
       r="21.805923" />
    <linearGradient
       id="linearGradient4968">
      <stop
         id="stop4970"
         offset="0"
         style="stop-color:#ffffff;stop-opacity:1;" />
      <stop
         id="stop4972"
         offset="1"
         style="stop-color:#ffffff;stop-opacity:0;" />
    </linearGradient>
    <radialGradient
       inkscape:collect="always"
       xlink:href="#linearGradient3824-8"
       id="radialGradient4079-3"
       gradientUnits="userSpaceOnUse"
       gradientTransform="matrix(0.28115351,-0.05717326,0.02181746,0.10728898,210.57289,56.600485)"
       cx="297.69568"
       cy="-41.01284"
       fx="297.69568"
       fy="-41.01284"
       r="21.805923" />
    <linearGradient
       id="linearGradient4975">
      <stop
         id="stop4977"
         offset="0"
         style="stop-color:#ffffff;stop-opacity:1;" />
      <stop
         id="stop4979"
         offset="1"
         style="stop-color:#ffffff;stop-opacity:0;" />
    </linearGradient>
    <radialGradient
       inkscape:collect="always"
       xlink:href="#linearGradient3810-9"
       id="radialGradient4081-1"
       gradientUnits="userSpaceOnUse"
       gradientTransform="matrix(1,0,0,0.79452056,0,8.4943109)"
       cx="296.41071"
       cy="42.484669"
       fx="296.41071"
       fy="42.484669"
       r="2.7838984" />
    <linearGradient
       id="linearGradient4982">
      <stop
         style="stop-color:#6a6a6a;stop-opacity:1;"
         offset="0"
         id="stop4984" />
      <stop
         style="stop-color:#a1a1a1;stop-opacity:1;"
         offset="1"
         id="stop4986" />
    </linearGradient>
    <radialGradient
       inkscape:collect="always"
       xlink:href="#linearGradient3824-5-9"
       id="radialGradient4083-1"
       gradientUnits="userSpaceOnUse"
       gradientTransform="matrix(0.99751629,0.04621051,-0.02120302,0.46754255,1.5865556,7.9070154)"
       cx="296.41428"
       cy="41.549023"
       fx="296.41428"
       fy="41.549023"
       r="2.7838984" />
    <linearGradient
       id="linearGradient3824-5-9">
      <stop
         id="stop3826-7-9"
         offset="0"
         style="stop-color:#ffffff;stop-opacity:1;" />
      <stop
         id="stop3828-2-9"
         offset="1"
         style="stop-color:#ffffff;stop-opacity:0;" />
    </linearGradient>
    <radialGradient
       inkscape:collect="always"
       xlink:href="#linearGradient3932-7"
       id="radialGradient4085-6"
       gradientUnits="userSpaceOnUse"
       gradientTransform="matrix(0.9989475,-0.0458682,0.01860893,0.40527736,-5.3330156,39.461957)"
       cx="280.45996"
       cy="-19.152206"
       fx="280.45996"
       fy="-19.152206"
       r="65.578125" />
    <linearGradient
       id="linearGradient4993">
      <stop
         style="stop-color:#ffffff;stop-opacity:1;"
         offset="0"
         id="stop4995" />
      <stop
         style="stop-color:#ffffff;stop-opacity:0"
         offset="1"
         id="stop4997" />
    </linearGradient>
    <radialGradient
       r="69.9328"
       fy="165.21375"
       fx="292.09503"
       cy="165.21375"
       cx="292.09503"
       gradientTransform="matrix(1.111138,0.8246675,-1.8053952,2.432548,196.56046,-117.86928)"
       gradientUnits="userSpaceOnUse"
       id="radialGradient5017"
       xlink:href="#linearGradient4139-0"
       inkscape:collect="always" />
    <radialGradient
       inkscape:collect="always"
       xlink:href="#linearGradient4139-0"
       id="radialGradient5182"
       gradientUnits="userSpaceOnUse"
       gradientTransform="matrix(1.111138,0.8246675,-1.8053952,2.432548,196.56046,-117.86928)"
       cx="292.09503"
       cy="165.21375"
       fx="292.09503"
       fy="165.21375"
       r="69.9328" />
    <radialGradient
       inkscape:collect="always"
       xlink:href="#linearGradient3810-9"
       id="radialGradient5184"
       gradientUnits="userSpaceOnUse"
       gradientTransform="matrix(0.9989475,-0.0458682,0.01860893,0.40527736,-5.3330156,39.461957)"
       cx="291.8031"
       cy="-5.0711598"
       fx="291.8031"
       fy="-5.0711598"
       r="65.578125" />
    <radialGradient
       inkscape:collect="always"
       xlink:href="#linearGradient3810-9"
       id="radialGradient5186"
       gradientUnits="userSpaceOnUse"
       gradientTransform="matrix(1.4250813,-0.36800566,0.21134995,0.76067738,-132.47669,109.40101)"
       cx="283.83524"
       cy="52.896263"
       fx="283.83524"
       fy="52.896263"
       r="66.078125" />
    <linearGradient
       inkscape:collect="always"
       xlink:href="#linearGradient3932-7"
       id="linearGradient5188"
       gradientUnits="userSpaceOnUse"
       x1="137.23048"
       y1="57.420135"
       x2="134.34529"
       y2="43.275913" />
    <radialGradient
       inkscape:collect="always"
       xlink:href="#linearGradient3810-9"
       id="radialGradient5190"
       gradientUnits="userSpaceOnUse"
       gradientTransform="matrix(1,0,0,0.62354562,0,12.949785)"
       cx="291.10718"
       cy="34.399349"
       fx="291.10718"
       fy="34.399349"
       r="21.805923" />
    <radialGradient
       inkscape:collect="always"
       xlink:href="#linearGradient3824-8"
       id="radialGradient5192"
       gradientUnits="userSpaceOnUse"
       gradientTransform="matrix(0.50869396,-0.11653165,0.02444748,0.10672041,147.48358,72.941768)"
       cx="304.77496"
       cy="75.984581"
       fx="304.77496"
       fy="75.984581"
       r="21.805923" />
    <radialGradient
       inkscape:collect="always"
       xlink:href="#linearGradient3824-8"
       id="radialGradient5194"
       gradientUnits="userSpaceOnUse"
       gradientTransform="matrix(0.34051168,-0.06706628,0.02115735,0.1074211,192.87514,59.551014)"
       cx="274.1965"
       cy="-142.0385"
       fx="274.1965"
       fy="-142.0385"
       r="21.805923" />
    <radialGradient
       inkscape:collect="always"
       xlink:href="#linearGradient3824-8"
       id="radialGradient5196"
       gradientUnits="userSpaceOnUse"
       gradientTransform="matrix(0.28115351,-0.05717326,0.02181746,0.10728898,210.57289,56.600485)"
       cx="297.69568"
       cy="-41.01284"
       fx="297.69568"
       fy="-41.01284"
       r="21.805923" />
    <radialGradient
       inkscape:collect="always"
       xlink:href="#linearGradient3810-9"
       id="radialGradient5198"
       gradientUnits="userSpaceOnUse"
       gradientTransform="matrix(1,0,0,0.79452056,0,8.4943109)"
       cx="296.41071"
       cy="42.484669"
       fx="296.41071"
       fy="42.484669"
       r="2.7838984" />
    <radialGradient
       inkscape:collect="always"
       xlink:href="#linearGradient3824-5-9"
       id="radialGradient5200"
       gradientUnits="userSpaceOnUse"
       gradientTransform="matrix(0.99751629,0.04621051,-0.02120302,0.46754255,1.5865556,7.9070154)"
       cx="296.41428"
       cy="41.549023"
       fx="296.41428"
       fy="41.549023"
       r="2.7838984" />
    <radialGradient
       inkscape:collect="always"
       xlink:href="#linearGradient3932-7"
       id="radialGradient5202"
       gradientUnits="userSpaceOnUse"
       gradientTransform="matrix(0.9989475,-0.0458682,0.01860893,0.40527736,-5.3330156,39.461957)"
       cx="280.45996"
       cy="-19.152206"
       fx="280.45996"
       fy="-19.152206"
       r="65.578125" />
    <radialGradient
       inkscape:collect="always"
       xlink:href="#linearGradient4139-0-7"
       id="radialGradient5182-2"
       gradientUnits="userSpaceOnUse"
       gradientTransform="matrix(1.111138,0.8246675,-1.8053952,2.432548,196.56046,-117.86928)"
       cx="292.09503"
       cy="165.21375"
       fx="292.09503"
       fy="165.21375"
       r="69.9328" />
    <linearGradient
       id="linearGradient4139-0-7">
      <stop
         id="stop4141-8-8"
         offset="0"
         style="stop-color:#2d7fa5;stop-opacity:1;" />
      <stop
         id="stop4143-8-0"
         offset="1"
         style="stop-color:#1cb352;stop-opacity:1;" />
    </linearGradient>
    <radialGradient
       r="69.9328"
       fy="165.21375"
       fx="292.09503"
       cy="165.21375"
       cx="292.09503"
       gradientTransform="matrix(0.29333298,0.21770669,-0.47661222,0.64217635,185.20304,394.74222)"
       gradientUnits="userSpaceOnUse"
       id="radialGradient5219"
       xlink:href="#linearGradient4139-0-7"
       inkscape:collect="always" />
    <filter
       inkscape:collect="always"
       id="filter3986"
       x="-0.156"
       width="1.312"
       y="-0.156"
       height="1.312">
      <feGaussianBlur
         inkscape:collect="always"
         stdDeviation="0.29949206"
         id="feGaussianBlur3988" />
    </filter>
    <radialGradient
       inkscape:collect="always"
       xlink:href="#linearGradient4139-0-2"
       id="radialGradient5182-5"
       gradientUnits="userSpaceOnUse"
       gradientTransform="matrix(1.111138,0.8246675,-1.8053952,2.432548,196.56046,-117.86928)"
       cx="292.09503"
       cy="165.21375"
       fx="292.09503"
       fy="165.21375"
       r="69.9328" />
    <linearGradient
       id="linearGradient4139-0-2">
      <stop
         id="stop4141-8-2"
         offset="0"
         style="stop-color:#2d7fa5;stop-opacity:1;" />
      <stop
         id="stop4143-8-3"
         offset="1"
         style="stop-color:#1cb352;stop-opacity:1;" />
    </linearGradient>
    <radialGradient
       r="69.9328"
       fy="165.21375"
       fx="292.09503"
       cy="165.21375"
       cx="292.09503"
       gradientTransform="matrix(0.28896859,0.21770669,-0.46952089,0.64217635,185.38559,395.09139)"
       gradientUnits="userSpaceOnUse"
       id="radialGradient4009"
       xlink:href="#linearGradient4139-0-2"
       inkscape:collect="always" />
    <radialGradient
       inkscape:collect="always"
       xlink:href="#linearGradient4139-0-4"
       id="radialGradient5182-52"
       gradientUnits="userSpaceOnUse"
       gradientTransform="matrix(1.111138,0.8246675,-1.8053952,2.432548,196.56046,-117.86928)"
       cx="292.09503"
       cy="165.21375"
       fx="292.09503"
       fy="165.21375"
       r="69.9328" />
    <linearGradient
       id="linearGradient4139-0-4">
      <stop
         id="stop4141-8-9"
         offset="0"
         style="stop-color:#146abe;stop-opacity:1;" />
      <stop
         id="stop4143-8-5"
         offset="1"
         style="stop-color:#14bb31;stop-opacity:1;" />
    </linearGradient>
    <radialGradient
       r="69.9328"
       fy="165.21375"
       fx="292.09503"
       cy="165.21375"
       cx="292.09503"
       gradientTransform="matrix(0.29333298,0.21770669,-0.47661222,0.64217635,185.21365,394.74222)"
       gradientUnits="userSpaceOnUse"
       id="radialGradient4077-5"
       xlink:href="#linearGradient4139-0-4"
       inkscape:collect="always" />
    <filter
       color-interpolation-filters="sRGB"
       inkscape:collect="always"
       id="filter3986-8"
       x="-0.156"
       width="1.312"
       y="-0.156"
       height="1.312">
      <feGaussianBlur
         inkscape:collect="always"
         stdDeviation="0.29949206"
         id="feGaussianBlur3988-1" />
    </filter>
    <filter
       id="filter4430"
       inkscape:label="Metallized paint"
       inkscape:menu="Materials"
       inkscape:menu-tooltip="Metallized effect with a soft lighting, slightly translucent at the edges"
       height="1.1"
       width="1.1"
       y="-0.05"
       x="-0.05"
       color-interpolation-filters="sRGB">
      <feGaussianBlur
         id="feGaussianBlur4432"
         stdDeviation="1"
         result="result1" />
      <feComposite
         id="feComposite4434"
         in2="result1"
         in="result1"
         result="result4"
         operator="in" />
      <feBlend
         id="feBlend4436"
         in2="result4"
         in="result1"
         mode="screen"
         result="result5" />
      <feGaussianBlur
         id="feGaussianBlur4438"
         stdDeviation="8"
         result="result6"
         in="result5" />
      <feComposite
         id="feComposite4440"
         in2="result5"
         operator="atop"
         in="result6"
         result="result8" />
      <feComposite
         id="feComposite4442"
         in2="result8"
         operator="in"
         result="fbSourceGraphic"
         in="result6" />
      <feGaussianBlur
         id="feGaussianBlur4444"
         result="result0"
         in="fbSourceGraphic"
         stdDeviation="2.5" />
      <feSpecularLighting
         id="feSpecularLighting4446"
         specularExponent="45"
         specularConstant="1.5"
         surfaceScale="1"
         lighting-color="rgb(255,255,255)"
         result="result1"
         in="result0">
        <fePointLight
           id="fePointLight4448"
           z="21000"
           y="-9000"
           x="-6000" />
      </feSpecularLighting>
      <feComposite
         id="feComposite4450"
         in2="fbSourceGraphic"
         operator="in"
         result="result2"
         in="result1" />
      <feComposite
         id="feComposite4452"
         in2="result2"
         k3="1"
         k2="1"
         operator="arithmetic"
         result="result4"
         in="fbSourceGraphic" />
      <feComposite
         id="feComposite4454"
         in2="result4"
         operator="in"
         in="result9"
         result="result91" />
      <feBlend
         id="feBlend4456"
         in2="result91"
         mode="multiply" />
    </filter>
    <radialGradient
       inkscape:collect="always"
       xlink:href="#linearGradient4139-0"
       id="radialGradient4576"
       gradientUnits="userSpaceOnUse"
       gradientTransform="matrix(0.36488143,-0.01737776,0.0380441,0.79881306,69.25066,444.1129)"
       cx="292.09503"
       cy="165.21375"
       fx="292.09503"
       fy="165.21375"
       r="69.9328" />
    <filter
       inkscape:collect="always"
       id="filter3923"
       x="-0.1362776"
       width="1.2725552"
       y="-0.1362776"
       height="1.2725552">
      <feGaussianBlur
         inkscape:collect="always"
         stdDeviation="0.26162859"
         id="feGaussianBlur3925" />
    </filter>
    <filter
       inkscape:collect="always"
       id="filter3924">
      <feGaussianBlur
         inkscape:collect="always"
         stdDeviation="0.13808176"
         id="feGaussianBlur3926" />
    </filter>
    <filter
       inkscape:collect="always"
       id="filter3936">
      <feGaussianBlur
         inkscape:collect="always"
         stdDeviation="0.101752"
         id="feGaussianBlur3938" />
    </filter>
  </defs>
  <sodipodi:namedview
     id="base"
     pagecolor="#ffffff"
     bordercolor="#666666"
     borderopacity="1.0"
     inkscape:pageopacity="0.0"
     inkscape:pageshadow="2"
     inkscape:zoom="6.8055556"
     inkscape:cx="36"
     inkscape:cy="36"
     inkscape:document-units="px"
     inkscape:current-layer="g4049"
     showgrid="false"
     fit-margin-top="0"
     fit-margin-left="0"
     fit-margin-right="0"
     fit-margin-bottom="0"
     inkscape:window-width="1366"
     inkscape:window-height="713"
     inkscape:window-x="0"
     inkscape:window-y="26"
     inkscape:window-maximized="1" />
  <metadata
     id="metadata4248">
    <rdf:RDF>
      <cc:Work
         rdf:about="">
        <dc:format>image/svg+xml</dc:format>
        <dc:type
           rdf:resource="http://purl.org/dc/dcmitype/StillImage" />
        <dc:title />
      </cc:Work>
    </rdf:RDF>
  </metadata>
  <g
     inkscape:label="Calque 1"
     inkscape:groupmode="layer"
     id="layer1"
     transform="translate(-155.06992,-523.72223)">
    <g
       id="g5162"
       transform="matrix(0.26399329,0,0,0.26399329,133.36543,425.85892)">
      <g
         transform="matrix(1.0469205,0,0,1.0859432,-83.515311,356.25057)"
         id="g4051">
        <path
           style="fill:url(#radialGradient5184);fill-opacity:1;stroke:url(#radialGradient5186);stroke-width:1.87572682;stroke-miterlimit:4;stroke-opacity:1;stroke-dasharray:none"
           d="m 293.375,15.75 c 36.21947,0 65.59375,12.175482 65.59375,27.1875 0,15.012018 -29.37428,27.1875 -65.59375,27.1875 -36.21947,0 -65.5625,-12.175482 -65.5625,-27.1875 0,-15.012018 29.34303,-27.1875 65.5625,-27.1875 z"
           id="path4015"
           inkscape:connector-curvature="0"
           sodipodi:nodetypes="sssss" />
        <path
           style="opacity:0.40575083;fill:#000000;fill-opacity:1;filter:url(#filter4041-0)"
           d="m 293.375,15.75 c 36.21947,0 65.59375,12.175482 65.59375,27.1875 0,-14.886287 -45.54377,-19.610035 -65.59375,-19.610035 -18.52455,0 -65.5625,4.571205 -65.5625,19.610035 0,-15.012018 29.34303,-27.1875 65.5625,-27.1875 z"
           id="path4029"
           inkscape:connector-curvature="0"
           sodipodi:nodetypes="scscs" />
        <g
           id="g3999"
           transform="translate(2,4)">
          <g
             id="g3995">
            <path
               sodipodi:type="arc"
               style="fill:none;stroke:url(#linearGradient5188);filter:url(#filter3942-8)"
               id="path3912"
               sodipodi:cx="141.94868"
               sodipodi:cy="50.484028"
               sodipodi:rx="22.867115"
               sodipodi:ry="6.2560973"
               d="m 164.8158,50.484028 c 0,3.455147 -10.23796,6.256097 -22.86712,6.256097 -12.62915,0 -22.86711,-2.80095 -22.86711,-6.256097 0,-3.455147 10.23796,-6.256097 22.86711,-6.256097 12.62916,0 22.86712,2.80095 22.86712,6.256097 z"
               transform="matrix(0.97169811,0,0,1.5862069,170.77477,-27.221083)" />
            <path
               transform="matrix(0.97169811,0,0,1.5862069,170.77477,-27.221083)"
               d="m 164.8158,50.484028 c 0,3.455147 -10.23796,6.256097 -22.86712,6.256097 -12.62915,0 -22.86711,-2.80095 -22.86711,-6.256097 0,-3.455147 10.23796,-6.256097 22.86711,-6.256097 12.62916,0 22.86712,2.80095 22.86712,6.256097 z"
               sodipodi:ry="6.2560973"
               sodipodi:rx="22.867115"
               sodipodi:cy="50.484028"
               sodipodi:cx="141.94868"
               id="path3765"
               style="fill:#000000;fill-opacity:1;stroke:none"
               sodipodi:type="arc" />
          </g>
          <path
             inkscape:connector-curvature="0"
             id="path3836-9"
             d="m 283.99611,30.030048 c -7.39621,0.102203 -15.66747,1.660833 -13.90625,3.323873 l 20.0625,12.995139 c 3.20535,2.075902 26.34328,-0.772221 22.21875,-3.323872 l -18.78125,-11.61353 c -1.5056,-0.921511 -4.61934,-1.334139 -8.125,-1.38161 -0.48203,-0.0065 -0.97567,-0.0068 -1.46875,0 z m 3,2.22259 c 4.16033,-0.118182 7.42798,0.574413 7.625,1.701983 0.22516,1.28865 -3.62879,2.656637 -8.625,3.063568 -4.99621,0.406931 -9.24359,-0.313215 -9.46875,-1.601865 -0.22516,-1.288651 3.66004,-2.656639 8.65625,-3.06357 0.62453,-0.05087 1.21817,-0.08323 1.8125,-0.100116 z m 7.875,5.826788 c 3.23704,-0.06011 7.22939,1.145859 10.3125,3.464035 l -14.1875,2.002333 c -5.21341,-3.663006 -0.85128,-4.883866 2.5625,-5.366252 0.42672,-0.0603 0.85007,-0.09153 1.3125,-0.100116 z"
             style="opacity:0.55910543;fill:#000000;fill-opacity:1;stroke:none;filter:url(#filter3884-1)" />
          <g
             id="g3840">
            <path
               style="fill:url(#radialGradient5190);fill-opacity:1;stroke:#000000;stroke-width:0.60000002;stroke-miterlimit:4;stroke-opacity:1;stroke-dasharray:none"
               d="m 283.74735,21.110169 c -7.39621,0.159505 -15.66747,2.592028 -13.90625,5.1875 l 20.0625,20.28125 c 3.20535,3.239818 26.34328,-1.20519 22.21875,-5.1875 l -18.78125,-18.125 c -1.5056,-1.438183 -4.61934,-2.082164 -8.125,-2.15625 -0.48203,-0.01019 -0.97567,-0.01063 -1.46875,0 z m 3,3.46875 c 4.16033,-0.184443 7.42798,0.896475 7.625,2.65625 0.22516,2.011171 -3.62879,4.146161 -8.625,4.78125 -4.99621,0.635089 -9.24359,-0.488829 -9.46875,-2.5 -0.22516,-2.011171 3.66004,-4.146161 8.65625,-4.78125 0.62453,-0.07939 1.21817,-0.129901 1.8125,-0.15625 z m 7.875,9.09375 c 3.23704,-0.09382 7.22939,1.78832 10.3125,5.40625 l -14.1875,3.125 c -5.21341,-5.716779 -0.85128,-7.622151 2.5625,-8.375 0.42672,-0.09411 0.85007,-0.142847 1.3125,-0.15625 z"
               id="path3802"
               inkscape:connector-curvature="0" />
            <path
               inkscape:connector-curvature="0"
               id="path3818"
               d="m 283.74735,21.110169 c -7.39621,0.159505 -15.66747,2.592028 -13.90625,5.1875 l 20.0625,20.28125 c 3.20535,3.239818 26.34328,-1.20519 22.21875,-5.1875 l -18.78125,-18.125 c -1.5056,-1.438183 -4.61934,-2.082164 -8.125,-2.15625 -0.48203,-0.01019 -0.97567,-0.01063 -1.46875,0 z m 3,3.46875 c 4.16033,-0.184443 7.42798,0.896475 7.625,2.65625 0.22516,2.011171 -3.62879,4.146161 -8.625,4.78125 -4.99621,0.635089 -9.24359,-0.488829 -9.46875,-2.5 -0.22516,-2.011171 3.66004,-4.146161 8.65625,-4.78125 0.62453,-0.07939 1.21817,-0.129901 1.8125,-0.15625 z m 7.875,9.09375 c 3.23704,-0.09382 7.22939,1.78832 10.3125,5.40625 l -14.1875,3.125 c -5.21341,-5.716779 -0.85128,-7.622151 2.5625,-8.375 0.42672,-0.09411 0.85007,-0.142847 1.3125,-0.15625 z"
               style="fill:url(#radialGradient5192);fill-opacity:1;stroke:none" />
            <path
               style="fill:url(#radialGradient5194);fill-opacity:1;stroke:none"
               d="m 283.74735,21.110169 c -7.39621,0.159505 -15.66747,2.592028 -13.90625,5.1875 l 20.0625,20.28125 c 3.20535,3.239818 26.34328,-1.20519 22.21875,-5.1875 l -18.78125,-18.125 c -1.5056,-1.438183 -4.61934,-2.082164 -8.125,-2.15625 -0.48203,-0.01019 -0.97567,-0.01063 -1.46875,0 z m 3,3.46875 c 4.16033,-0.184443 7.42798,0.896475 7.625,2.65625 0.22516,2.011171 -3.62879,4.146161 -8.625,4.78125 -4.99621,0.635089 -9.24359,-0.488829 -9.46875,-2.5 -0.22516,-2.011171 3.66004,-4.146161 8.65625,-4.78125 0.62453,-0.07939 1.21817,-0.129901 1.8125,-0.15625 z m 7.875,9.09375 c 3.23704,-0.09382 7.22939,1.78832 10.3125,5.40625 l -14.1875,3.125 c -5.21341,-5.716779 -0.85128,-7.622151 2.5625,-8.375 0.42672,-0.09411 0.85007,-0.142847 1.3125,-0.15625 z"
               id="path3832"
               inkscape:connector-curvature="0" />
            <path
               inkscape:connector-curvature="0"
               id="path3836"
               d="m 283.74735,21.110169 c -7.39621,0.159505 -15.66747,2.592028 -13.90625,5.1875 l 20.0625,20.28125 c 3.20535,3.239818 26.34328,-1.20519 22.21875,-5.1875 l -18.78125,-18.125 c -1.5056,-1.438183 -4.61934,-2.082164 -8.125,-2.15625 -0.48203,-0.01019 -0.97567,-0.01063 -1.46875,0 z m 3,3.46875 c 4.16033,-0.184443 7.42798,0.896475 7.625,2.65625 0.22516,2.011171 -3.62879,4.146161 -8.625,4.78125 -4.99621,0.635089 -9.24359,-0.488829 -9.46875,-2.5 -0.22516,-2.011171 3.66004,-4.146161 8.65625,-4.78125 0.62453,-0.07939 1.21817,-0.129901 1.8125,-0.15625 z m 7.875,9.09375 c 3.23704,-0.09382 7.22939,1.78832 10.3125,5.40625 l -14.1875,3.125 c -5.21341,-5.716779 -0.85128,-7.622151 2.5625,-8.375 0.42672,-0.09411 0.85007,-0.142847 1.3125,-0.15625 z"
               style="fill:url(#radialGradient5196);fill-opacity:1;stroke:none" />
          </g>
          <g
             transform="matrix(1.2122145,0,0,1.3111086,-63.729878,-12.333574)"
             id="g3904">
            <path
               sodipodi:type="arc"
               style="fill:url(#radialGradient5198);fill-opacity:1;stroke:#000000;stroke-width:0.40000001;stroke-miterlimit:4;stroke-opacity:1;stroke-dasharray:none"
               id="path3888"
               sodipodi:cx="296.35168"
               sodipodi:cy="41.338982"
               sodipodi:rx="2.7838984"
               sodipodi:ry="2.2118645"
               d="m 299.13558,41.338982 c 0,1.221579 -1.24639,2.211864 -2.7839,2.211864 -1.5375,0 -2.78389,-0.990285 -2.78389,-2.211864 0,-1.221579 1.24639,-2.211865 2.78389,-2.211865 1.53751,0 2.7839,0.990286 2.7839,2.211865 z"
               transform="matrix(0.9946732,-0.08741899,0.10307871,0.84356247,-0.7757836,31.563905)" />
            <path
               transform="matrix(0.9946732,-0.08741899,0.10307871,0.84356247,-0.7757836,31.563905)"
               d="m 299.13558,41.338982 c 0,1.221579 -1.24639,2.211864 -2.7839,2.211864 -1.5375,0 -2.78389,-0.990285 -2.78389,-2.211864 0,-1.221579 1.24639,-2.211865 2.78389,-2.211865 1.53751,0 2.7839,0.990286 2.7839,2.211865 z"
               sodipodi:ry="2.2118645"
               sodipodi:rx="2.7838984"
               sodipodi:cy="41.338982"
               sodipodi:cx="296.35168"
               id="path3900"
               style="fill:url(#radialGradient5200);fill-opacity:1;stroke:none"
               sodipodi:type="arc" />
          </g>
        </g>
        <path
           sodipodi:nodetypes="scscs"
           inkscape:connector-curvature="0"
           id="path4025"
           d="m 293.375,15.75 c 36.21947,0 65.59375,12.175482 65.59375,27.1875 0,-14.886287 -45.54377,-23.271052 -65.59375,-23.271052 -18.52455,0 -65.5625,8.232222 -65.5625,23.271052 0,-15.012018 29.34303,-27.1875 65.5625,-27.1875 z"
           style="fill:url(#radialGradient5202);fill-opacity:1" />
      </g>
    </g>
    <g
       id="g4049">
      <path
         sodipodi:nodetypes="cczcczc"
         inkscape:connector-curvature="0"
         id="path4049"
         d="m 153.80946,402.93673 0,209.25566 c 0,0 12.93868,28.6756 67.30069,28.6756 54.36201,0 72.76491,-29.38123 72.76491,-29.38123 l -0.43145,-208.82421 c 0,0 -19.75843,29.59443 -70.37028,29.59443 -50.61185,0 -69.26387,-29.32025 -69.26387,-29.32025 z"
         style="fill:url(#radialGradient5182);fill-opacity:1;stroke:none"
         transform="matrix(0.26399329,0,0,0.26399329,133.36543,425.85892)" />
      <path
         transform="matrix(0.26399329,0,0,0.26399329,133.36543,425.85892)"
         style="fill:url(#radialGradient5182);fill-opacity:1;stroke:none;filter:url(#filter4430);opacity:0.48881789"
         d="m 153.80946,402.93673 0,209.25566 c 0,0 12.93868,28.6756 67.30069,28.6756 54.36201,0 72.76491,-29.38123 72.76491,-29.38123 l -0.43145,-208.82421 c 0,0 -19.75843,29.59443 -70.37028,29.59443 -50.61185,0 -69.26387,-29.32025 -69.26387,-29.32025 z"
         id="path4428"
         inkscape:connector-curvature="0"
         sodipodi:nodetypes="cczcczc" />
      <path
         sodipodi:nodetypes="ccccccsccccssscccssccccscccccsscccccccscccccscccccccccccccs"
         inkscape:connector-curvature="0"
         id="text3114"
         transform="translate(155.06992,523.72223)"
         d="m 55.75,24.25 c -1.37942,1.074641 -2.257224,2.512026 -2.59375,4.3125 -0.444268,2.434626 0.0442,5.139895 1.4375,8.125 l 0.15625,0.375 c 0.31373,0.672159 0.674943,1.29774 1.03125,1.875 z m -12.71875,6.53125 c -1.350616,0.07718 -2.75569,0.47338 -4.21875,1.15625 -2.914323,1.360282 -4.782347,3.32926 -5.5625,5.90625 -0.785652,2.565228 -0.499982,5.277335 0.84375,8.15625 l 0.1875,0.375 c 1.349247,2.890734 3.247914,4.861008 5.71875,5.90625 2.470831,1.04525 5.18707,0.871276 8.125,-0.5 2.902513,-1.354746 4.745578,-3.30978 5.53125,-5.875 0.78564,-2.565199 0.505478,-5.296757 -0.84375,-8.1875 l -0.1875,-0.375 c -1.343751,-2.878907 -3.247926,-4.829729 -5.71875,-5.875 -1.238175,-0.52851 -2.524384,-0.76468 -3.875,-0.6875 z m -0.78125,5.375 c 0.687671,-0.05154 1.313795,0.151822 1.90625,0.59375 0.942407,0.695325 1.773052,1.817565 2.5,3.375 l 0.1875,0.375 c 0.743451,1.592864 1.077787,2.967893 1,4.125 -0.07781,1.15713 -0.70692,2.017305 -1.875,2.5625 C 44.765257,47.749235 43.681394,47.671717 42.75,47 41.824887,46.310996 40.998965,45.16716 40.25,43.5625 l -0.1875,-0.375 c -0.721434,-1.54564 -1.054985,-2.887274 -1,-4.0625 0.06678,-1.180699 0.695109,-2.043019 1.875,-2.59375 0.446881,-0.208575 0.899897,-0.344075 1.3125,-0.375 z m -17.78125,3.625 c -1.627858,-0.02422 -3.401082,0.420365 -5.3125,1.3125 -0.04445,0.02075 -0.08107,0.04151 -0.125,0.0625 l 0,12.84375 c 1.293746,0.07238 2.787059,-0.09817 4.53125,-0.53125 1.553538,-0.365871 2.699065,-0.473482 3.40625,-0.34375 0.713461,0.11245 1.185956,0.403056 1.40625,0.875 0.269839,0.578156 0.264259,1.113691 0,1.625 -0.269785,0.499529 -0.822684,0.938024 -1.625,1.3125 -0.967515,0.451591 -1.781814,0.590849 -2.5,0.4375 -0.706397,-0.158841 -1.302358,-0.664992 -1.75,-1.5625 l -3.46875,1.59375 0,3.40625 c 0.642858,0.44838 1.380595,0.801431 2.28125,1.0625 2.13885,0.611059 4.517439,0.310826 7.125,-0.90625 2.513151,-1.173012 4.276849,-2.68048 5.28125,-4.5 1.010663,-1.83681 1.116524,-3.621101 0.3125,-5.34375 -0.782025,-1.675427 -1.95507,-2.708396 -3.5,-3.09375 -1.550459,-0.39712 -3.593502,-0.260743 -6.15625,0.375 -1.618834,0.41074 -2.745486,0.560183 -3.40625,0.4375 -0.648969,-0.128159 -1.106944,-0.461381 -1.34375,-0.96875 -0.247821,-0.530932 -0.233804,-1.053308 0.03125,-1.59375 0.265053,-0.540405 0.718408,-0.958103 1.34375,-1.25 0.861316,-0.402 1.565697,-0.494365 2.125,-0.28125 0.559295,0.213155 1.022539,0.682391 1.375,1.4375 l 5.78125,-2.71875 0,-0.125 c -0.771806,-1.838249 -2.179818,-2.947194 -4.21875,-3.375 -0.511113,-0.109889 -1.051131,-0.179428 -1.59375,-0.1875 z"
         style="font-size:40px;font-style:normal;font-variant:normal;font-weight:normal;font-stretch:normal;line-height:125%;letter-spacing:0px;word-spacing:0px;fill:#ffffff;fill-opacity:1;stroke:none;font-family:Roboto;-inkscape-font-specification:Roboto;opacity:0.9201278" />
      <path
         transform="matrix(3.9717198,0,0,3.9717198,53.707065,438.20489)"
         d="m 34.253149,25.889329 a 2.3037851,2.3037851 0 0 1 -3.64773,2.80467"
         sodipodi:ry="2.3037851"
         sodipodi:rx="2.3037851"
         sodipodi:cy="27.196539"
         sodipodi:cx="32.356144"
         id="path3940"
         style="opacity:0.59744412;fill:none;stroke:#ffffff;stroke-width:1.39999998;stroke-miterlimit:4;stroke-opacity:1;stroke-dasharray:none;filter:url(#filter3986)"
         sodipodi:type="arc"
         sodipodi:start="5.6798183"
         sodipodi:end="8.7171934"
         sodipodi:open="true" />
      <path
         sodipodi:type="arc"
         style="opacity:0.59744412;fill:none;stroke:#ffffff;stroke-width:1.39999998;stroke-miterlimit:4;stroke-opacity:1;stroke-dasharray:none;filter:url(#filter3986)"
         id="path3990"
         sodipodi:cx="32.356144"
         sodipodi:cy="27.196539"
         sodipodi:rx="2.3037851"
         sodipodi:ry="2.3037851"
         d="m 32.545427,24.900543 a 2.3037851,2.3037851 0 0 1 0.245511,4.55838"
         transform="matrix(4.1876684,0,0,4.1876684,40.582261,465.15548)"
         sodipodi:start="4.7946433"
         sodipodi:end="7.6641127"
         sodipodi:open="true" />
      <path
         transform="matrix(7.6976783,0,0,7.6976783,-42.646604,371.00573)"
         d="m 30.739167,28.837518 a 2.3037851,2.3037851 0 0 1 2.017225,-3.909729"
         sodipodi:ry="2.3037851"
         sodipodi:rx="2.3037851"
         sodipodi:cy="27.196539"
         sodipodi:cx="32.356144"
         id="path3992"
         style="opacity:0.46325881;fill:none;stroke:#ffffff;stroke-width:1.39999998;stroke-miterlimit:4;stroke-opacity:1;stroke-dasharray:none;filter:url(#filter3986-8)"
         sodipodi:type="arc"
         sodipodi:start="2.3488273"
         sodipodi:end="4.8870101"
         sodipodi:open="true" />
      <path
         sodipodi:type="arc"
         style="opacity:0.82108627;fill:none;stroke:#ffffff;stroke-width:1.39999998;stroke-miterlimit:4;stroke-opacity:1;stroke-dasharray:none;filter:url(#filter3924)"
         id="path3921"
         sodipodi:cx="32.356144"
         sodipodi:cy="27.196539"
         sodipodi:rx="2.3037851"
         sodipodi:ry="2.3037851"
         d="m 34.659929,27.196539 a 2.3037851,2.3037851 0 1 1 -4.60757,0 2.3037851,2.3037851 0 1 1 4.60757,0 z"
         transform="matrix(2.3302139,0,0,2.3302139,125.73281,483.7152)" />
      <path
         transform="matrix(2.0118742,-0.20022854,0.20022854,2.0118742,139.7731,530.45713)"
         d="m 32.755795,29.465394 a 2.3037851,2.3037851 0 1 1 -0.04798,-4.54564"
         sodipodi:ry="2.3037851"
         sodipodi:rx="2.3037851"
         sodipodi:cy="27.196539"
         sodipodi:cx="32.356144"
         id="path3928"
         style="opacity:0.82108627;fill:none;stroke:#ffffff;stroke-width:1.39999998;stroke-miterlimit:4;stroke-opacity:1;stroke-dasharray:none;filter:url(#filter3924)"
         sodipodi:type="arc"
         sodipodi:start="1.3964384"
         sodipodi:end="4.8656394"
         sodipodi:open="true" />
      <path
         sodipodi:type="arc"
         style="opacity:0.82108627;fill:none;stroke:#ffffff;stroke-width:1.39999998;stroke-miterlimit:4;stroke-opacity:1;stroke-dasharray:none;filter:url(#filter3924)"
         id="path3930"
         sodipodi:cx="32.356144"
         sodipodi:cy="27.196539"
         sodipodi:rx="2.3037851"
         sodipodi:ry="2.3037851"
         d="m 34.659929,27.196539 a 2.3037851,2.3037851 0 1 1 -4.60757,0 2.3037851,2.3037851 0 1 1 4.60757,0 z"
         transform="matrix(1.2447026,-0.12387702,0.12387702,1.2447026,158.66415,551.86335)" />
      <path
         transform="matrix(1.2447026,-0.12387702,0.12387702,1.2447026,134.56619,521.44702)"
         d="m 34.659929,27.196539 a 2.3037851,2.3037851 0 1 1 -4.60757,0 2.3037851,2.3037851 0 1 1 4.60757,0 z"
         sodipodi:ry="2.3037851"
         sodipodi:rx="2.3037851"
         sodipodi:cy="27.196539"
         sodipodi:cx="32.356144"
         id="path3932"
         style="opacity:0.82108627;fill:none;stroke:#ffffff;stroke-width:1.39999998;stroke-miterlimit:4;stroke-opacity:1;stroke-dasharray:none;filter:url(#filter3924)"
         sodipodi:type="arc" />
      <path
         sodipodi:type="arc"
         style="opacity:0.86581469;fill:none;stroke:#ffffff;stroke-width:1.39999998;stroke-miterlimit:4;stroke-opacity:1;stroke-dasharray:none;filter:url(#filter3936)"
         id="path3934"
         sodipodi:cx="32.356144"
         sodipodi:cy="27.196539"
         sodipodi:rx="2.3037851"
         sodipodi:ry="2.3037851"
         d="m 34.659929,27.196539 a 2.3037851,2.3037851 0 1 1 -4.60757,0 2.3037851,2.3037851 0 1 1 4.60757,0 z"
         transform="matrix(0.70452087,-0.0701163,0.0701163,0.70452087,159.67793,531.90065)" />
      <path
         transform="matrix(0.70452087,-0.0701163,0.0701163,0.70452087,158.20854,571.72106)"
         d="m 34.659929,27.196539 a 2.3037851,2.3037851 0 1 1 -4.60757,0 2.3037851,2.3037851 0 1 1 4.60757,0 z"
         sodipodi:ry="2.3037851"
         sodipodi:rx="2.3037851"
         sodipodi:cy="27.196539"
         sodipodi:cx="32.356144"
         id="path3941"
         style="opacity:0.86581469;fill:none;stroke:#ffffff;stroke-width:1.39999998;stroke-miterlimit:4;stroke-opacity:1;stroke-dasharray:none;filter:url(#filter3936)"
         sodipodi:type="arc" />
    </g>
  </g>
</svg>
